<?xml version="1.0" encoding="utf-8"?>
<!-- Generator: Adobe Illustrator 27.5.0, SVG Export Plug-In . SVG Version: 6.00 Build 0)  -->
<svg version="1.1" xmlns="http://www.w3.org/2000/svg" xmlns:xlink="http://www.w3.org/1999/xlink" x="0px" y="0px"
	 viewBox="0 0 500 500" style="enable-background:new 0 0 500 500;" xml:space="preserve">
<g id="Background_Complete">
	<g>
		<rect y="382.398" style="fill:#EBEBEB;" width="500" height="0.25"/>
		<rect x="428.222" y="398.494" style="fill:#EBEBEB;" width="21.679" height="0.25"/>
		<rect x="310.558" y="393.306" style="fill:#EBEBEB;" width="34.109" height="0.25"/>
		<rect x="396.586" y="389.208" style="fill:#EBEBEB;" width="44.525" height="0.25"/>
		<rect x="161.877" y="394.25" style="fill:#EBEBEB;" width="11.138" height="0.25"/>
		<rect x="114.585" y="394.25" style="fill:#EBEBEB;" width="38.389" height="0.25"/>
		<rect x="66.307" y="390.028" style="fill:#EBEBEB;" width="27.695" height="0.25"/>
		<path style="fill:#EBEBEB;" d="M237.014,337.8H43.915c-3.147,0-5.708-2.561-5.708-5.708V60.66c0-3.147,2.561-5.708,5.708-5.708
			h193.099c3.146,0,5.707,2.561,5.707,5.708v271.432C242.721,335.239,240.16,337.8,237.014,337.8z M43.915,55.203
			c-3.01,0-5.458,2.448-5.458,5.458v271.432c0,3.01,2.448,5.458,5.458,5.458h193.099c3.009,0,5.457-2.448,5.457-5.458V60.66
			c0-3.009-2.448-5.458-5.457-5.458H43.915z"/>
		<path style="fill:#EBEBEB;" d="M453.31,337.8H260.212c-3.147,0-5.707-2.561-5.707-5.708V60.66c0-3.147,2.561-5.708,5.707-5.708
			H453.31c3.148,0,5.708,2.561,5.708,5.708v271.432C459.019,335.239,456.458,337.8,453.31,337.8z M260.212,55.203
			c-3.009,0-5.457,2.448-5.457,5.458v271.432c0,3.01,2.448,5.458,5.457,5.458H453.31c3.01,0,5.458-2.448,5.458-5.458V60.66
			c0-3.009-2.448-5.458-5.458-5.458H260.212z"/>
	</g>
	<g>
		<g>
			<path style="fill:#E0E0E0;" d="M114.978,174.627c11.549,0,20.911-9.362,20.911-20.911c0-11.549-9.362-20.911-20.911-20.911
				h-2.565v41.821H114.978z"/>
			<circle style="fill:#F5F5F5;" cx="112.413" cy="153.716" r="20.911"/>
			<path style="fill:#E0E0E0;" d="M111.455,156.344c-15.434,0-27.991-12.557-27.991-27.991v-16.724c0-1.452,1.177-2.628,2.628-2.628
				c1.451,0,2.628,1.177,2.628,2.628v16.724c0,12.536,10.199,22.734,22.734,22.734c1.451,0,2.628,1.177,2.628,2.628
				S112.906,156.344,111.455,156.344z"/>
			<path style="fill:#F5F5F5;" d="M62.832,126.353h46.521c3.188,0,5.512-3.019,4.696-6.101l-4.035-15.235
				c-0.564-2.13-2.492-3.614-4.695-3.614H66.868c-2.204,0-4.131,1.483-4.695,3.614l-4.035,15.235
				C57.32,123.333,59.644,126.353,62.832,126.353z"/>
		</g>
		<g>
			<path style="fill:#E0E0E0;" d="M410.277,174.627c11.549,0,20.911-9.362,20.911-20.911c0-11.549-9.362-20.911-20.911-20.911
				h-2.565v41.821H410.277z"/>
			<circle style="fill:#F5F5F5;" cx="407.712" cy="153.716" r="20.911"/>
			<path style="fill:#E0E0E0;" d="M406.754,156.344c-15.434,0-27.991-12.557-27.991-27.991v-16.724c0-1.452,1.177-2.628,2.628-2.628
				c1.452,0,2.628,1.177,2.628,2.628v16.724c0,12.536,10.199,22.734,22.734,22.734c1.452,0,2.628,1.177,2.628,2.628
				S408.205,156.344,406.754,156.344z"/>
			<path style="fill:#F5F5F5;" d="M358.131,126.353h46.521c3.188,0,5.512-3.019,4.695-6.101l-4.035-15.235
				c-0.564-2.13-2.492-3.614-4.695-3.614h-38.451c-2.204,0-4.131,1.483-4.695,3.614l-4.035,15.235
				C352.619,123.333,354.943,126.353,358.131,126.353z"/>
		</g>
		<g>
			<g>
				
					<rect x="133.981" y="256.923" transform="matrix(-1 -1.224647e-16 1.224647e-16 -1 283.169 572.7766)" style="fill:#E6E6E6;" width="15.207" height="58.93"/>
				<polygon style="fill:#F0F0F0;" points="92.751,315.853 143.221,315.853 150.843,246.88 100.373,246.88 				"/>
				<polygon style="fill:#F5F5F5;" points="87.285,315.853 139.416,315.853 147.038,246.88 94.907,246.88 				"/>
				<polygon style="fill:#FFFFFF;" points="135.65,310.418 142.07,252.316 98.673,252.316 92.253,310.418 				"/>
				<path style="fill:#F5F5F5;" d="M126.687,296.335l0.262-2.368c1.611-14.577-7.49-27.568-19.313-27.568l0,0l-0.262,2.368
					C105.763,283.343,114.865,296.335,126.687,296.335L126.687,296.335z"/>
			</g>
			<g>
				<g>
					
						<rect x="59.084" y="315.853" transform="matrix(-1 -1.224647e-16 1.224647e-16 -1 163.0067 698.2517)" style="fill:#E6E6E6;" width="44.839" height="66.545"/>
					<polygon style="fill:#F0F0F0;" points="63.594,382.398 59.084,382.398 59.084,369.569 68.323,369.569 					"/>
					
						<rect x="184.754" y="315.853" transform="matrix(-1 -1.224647e-16 1.224647e-16 -1 414.3461 698.2517)" style="fill:#E6E6E6;" width="44.839" height="66.545"/>
					
						<rect x="59.084" y="315.853" transform="matrix(-1 -1.224647e-16 1.224647e-16 -1 247.7738 690.3794)" style="fill:#F0F0F0;" width="129.606" height="58.673"/>
					<polygon style="fill:#F0F0F0;" points="184.18,382.398 188.69,382.398 188.69,369.569 179.451,369.569 					"/>
					
						<rect x="62.583" y="319.523" transform="matrix(-1 -1.224647e-16 1.224647e-16 -1 247.7738 662.7214)" style="fill:#E6E6E6;" width="122.608" height="23.675"/>
					<path style="fill:#F0F0F0;" d="M115.71,334.958h16.353c7.103,0,13.894-2.921,18.779-8.077l0,0H96.93l0,0
						C101.816,332.037,108.607,334.958,115.71,334.958z"/>
					
						<rect x="62.583" y="347.025" transform="matrix(-1 -1.224647e-16 1.224647e-16 -1 247.7738 717.7244)" style="fill:#E6E6E6;" width="122.608" height="23.675"/>
					<path style="fill:#F0F0F0;" d="M115.71,362.459h16.353c7.103,0,13.894-2.921,18.779-8.077l0,0H96.93l0,0
						C101.816,359.538,108.607,362.459,115.71,362.459z"/>
				</g>
			</g>
			<g>
				<path style="fill:#E6E6E6;" d="M180.48,313.139h1.158c-0.012-2.386,0.006-8.439,0.122-22.312
					c0.208-25.144,0.608-26.677,0.608-26.677l-2.758,11.608C177.861,288.612,180.115,301.528,180.48,313.139z"/>
				<path style="fill:#E6E6E6;" d="M178.19,274.029c-3.97-4.731-12.451-6.108-21.135-7.286c-3.409-0.462,8.959,7.328,15.004,12.862
					c4.696,4.298,7.699,5.486,8.988,9.77C181.719,284.032,181.61,278.105,178.19,274.029z"/>
				<path style="fill:#E6E6E6;" d="M183.456,282.485c3.969-4.731,12.451-6.109,21.135-7.286c3.409-0.462-8.959,7.328-15.004,12.862
					c-4.696,4.298-7.699,5.486-8.988,9.77C179.926,292.489,180.035,286.562,183.456,282.485z"/>
				<path style="fill:#E6E6E6;" d="M181.756,263.038c2.976-5.655,10.466-10.979,18.87-12.999
					c3.299-0.793-7.643,10.442-11.802,17.687c-3.231,5.628-7.516,12.239-8.182,16.988
					C179.637,275.306,178.78,268.693,181.756,263.038z"/>
				<g>
					<path style="fill:#F0F0F0;" d="M181.405,315.853L181.405,315.853c-3.546,0-6.476-1.777-6.68-4.051l-0.591-3.885h14.541
						l-0.591,3.885C187.881,314.076,184.951,315.853,181.405,315.853z"/>
					<polygon style="fill:#F0F0F0;" points="189.617,309.412 173.193,309.412 172.722,305.083 190.087,305.083 					"/>
				</g>
			</g>
		</g>
		<g>
			<g>
				<g>
					<g>
						
							<rect x="169.54" y="80.591" transform="matrix(-1 -1.224647e-16 1.224647e-16 -1 499.2862 307.3146)" style="fill:#E6E6E6;" width="160.206" height="146.132"/>
						
							<rect x="165.934" y="80.591" transform="matrix(-1 -1.224647e-16 1.224647e-16 -1 494.1139 307.3146)" style="fill:#F5F5F5;" width="162.245" height="146.132"/>
						
							<rect x="180.537" y="79.007" transform="matrix(-1.836970e-16 1 -1 -1.836970e-16 400.7143 -93.3997)" style="fill:#FAFAFA;" width="133.039" height="149.301"/>
						<polygon style="fill:#FFFFFF;" points="303.388,220.177 244.626,87.138 224.667,87.138 283.429,220.177 						"/>
						<polygon style="fill:#FFFFFF;" points="277.771,220.177 219.009,87.138 205.266,87.138 264.027,220.177 						"/>
						
							<rect x="157.464" y="149.797" transform="matrix(-1.836970e-16 1 -1 -1.836970e-16 377.6407 -70.326)" style="fill:#E6E6E6;" width="133.04" height="7.721"/>
						
							<rect x="208.783" y="149.797" transform="matrix(-1.836970e-16 1 -1 -1.836970e-16 428.9601 -121.6454)" style="fill:#E6E6E6;" width="133.04" height="7.721"/>
						
							<rect x="150.542" y="148.421" transform="matrix(-1.836970e-16 1 -1 -1.836970e-16 374.8722 -68.2713)" style="fill:#F5F5F5;" width="142.06" height="9.759"/>
						
							<rect x="201.861" y="148.421" transform="matrix(-1.836970e-16 1 -1 -1.836970e-16 426.1917 -119.5908)" style="fill:#F5F5F5;" width="142.06" height="9.759"/>
						
							<rect x="106.23" y="153.314" transform="matrix(-1.836970e-16 1 -1 -1.836970e-16 326.4071 -19.0926)" style="fill:#E6E6E6;" width="133.039" height="0.687"/>
					</g>
				</g>
			</g>
			<g>
				<g>
					<path style="fill:#E6E6E6;" d="M163.217,72.173h173.565c0.459,0,0.835,0.376,0.835,0.835l0,0c0,0.459-0.376,0.835-0.835,0.835
						H163.217c-0.459,0-0.835-0.376-0.835-0.835l0,0C162.383,72.548,162.758,72.173,163.217,72.173z"/>
					<path style="fill:#E6E6E6;" d="M329.746,77.681L329.746,77.681c0.62,0,1.127-0.507,1.127-1.127v-2.42
						c0-0.62-0.507-1.127-1.127-1.127l0,0c-0.62,0-1.127,0.507-1.127,1.127v2.42C328.619,77.174,329.126,77.681,329.746,77.681z"/>
					<path style="fill:#E6E6E6;" d="M175.804,77.681L175.804,77.681c0.62,0,1.127-0.507,1.127-1.127v-2.42
						c0-0.62-0.507-1.127-1.127-1.127l0,0c-0.62,0-1.127,0.507-1.127,1.127v2.42C174.678,77.174,175.185,77.681,175.804,77.681z"/>
				</g>
				
					<rect x="163.484" y="73.007" transform="matrix(-1 -1.224647e-16 1.224647e-16 -1 489.0943 260.4517)" style="opacity:0.6;fill:#E0E0E0;" width="162.126" height="114.437"/>
			</g>
		</g>
		<g>
			<g>
				<path style="fill:#FAFAFA;" d="M340.286,283.672h-27.951c-2.973,0-5.382-2.41-5.382-5.382v-12.937
					c0-2.973,2.41-5.382,5.382-5.382h27.951c2.973,0,5.382,2.41,5.382,5.382v12.937
					C345.668,281.262,343.258,283.672,340.286,283.672z"/>
				<path style="fill:#E6E6E6;" d="M343.861,260.668H308.76c-0.998,0-1.807-0.809-1.807-1.807v-1.462
					c0-0.998,0.809-1.807,1.807-1.807h35.101c0.998,0,1.807,0.809,1.807,1.807v1.462
					C345.668,259.859,344.859,260.668,343.861,260.668z"/>
			</g>
			<g>
				<path style="fill:#F0F0F0;" d="M307.523,309.955c0,0,0.507,16.663,19.927,16.663c19.42,0,19.927-16.663,19.927-16.663H307.523z"
					/>
			</g>
			<g>
				<path style="fill:#F0F0F0;" d="M351.804,309.955c0,0,0.507,16.663,19.927,16.663c19.42,0,19.927-16.663,19.927-16.663H351.804z"
					/>
			</g>
			<g>
				<path style="fill:#F0F0F0;" d="M382.048,283.672h-38.411c-4.085,0-7.396-3.311-7.396-7.397v-19.643
					c0-4.085,3.311-7.396,7.396-7.396h38.411c4.085,0,7.396,3.312,7.396,7.396v19.643
					C389.444,280.36,386.133,283.672,382.048,283.672z"/>
				<path style="fill:#F5F5F5;" d="M386.961,250.194h-48.237c-1.371,0-2.483-1.112-2.483-2.483v-2.009
					c0-1.371,1.112-2.483,2.483-2.483h48.237c1.371,0,2.483,1.112,2.483,2.483v2.009
					C389.444,249.083,388.333,250.194,386.961,250.194z"/>
			</g>
			<g>
				
					<rect x="292.896" y="299.755" transform="matrix(-1 -1.224647e-16 1.224647e-16 -1 590.8305 682.1528)" style="fill:#E6E6E6;" width="5.038" height="82.643"/>
				<g>
					<g>
						<rect x="411.128" y="283.672" style="fill:#E6E6E6;" width="27.29" height="16.083"/>
						
							<rect x="275.447" y="283.672" transform="matrix(-1 -1.224647e-16 1.224647e-16 -1 686.5741 583.4267)" style="fill:#F5F5F5;" width="135.681" height="16.083"/>
					</g>
				</g>
				<g>
					<g>
						<rect x="411.128" y="326.618" style="fill:#E6E6E6;" width="27.29" height="16.083"/>
						
							<rect x="275.447" y="326.618" transform="matrix(-1 -1.224647e-16 1.224647e-16 -1 686.5741 669.3197)" style="fill:#F5F5F5;" width="135.681" height="16.083"/>
					</g>
				</g>
				
					<rect x="428.577" y="299.755" transform="matrix(-1 -1.224647e-16 1.224647e-16 -1 862.1924 682.1528)" style="fill:#E6E6E6;" width="5.038" height="82.643"/>
				
					<rect x="406.089" y="299.755" transform="matrix(-1 -1.224647e-16 1.224647e-16 -1 817.2168 682.1528)" style="fill:#F5F5F5;" width="5.038" height="82.643"/>
				
					<rect x="275.447" y="299.755" transform="matrix(-1 -1.224647e-16 1.224647e-16 -1 555.9313 682.1528)" style="fill:#F5F5F5;" width="5.038" height="82.643"/>
			</g>
		</g>
	</g>
</g>
<g id="Background_Simple" style="display:none;">
	<g style="display:inline;">
		<path style="fill:#407BFF;" d="M423.994,265.315c10.085,46.032-18.09,75.725-57.112,74.349
			c-18.714-0.66-41.048-21.229-59.426-25.815c-23.975-5.982-44.754,1.773-67.689,2.907c-57.045,2.82-56.297-20.46-94.74-50.476
			c-27.027-21.102-70.566-18.789-85.029-55.743c-17.676-45.164,32.987-66.984,71.501-60.297c44.236,7.68,56.49-47.4,124.065-41.299
			C322.038,114.943,409.786,195.982,423.994,265.315z"/>
		<path style="opacity:0.9;fill:#FFFFFF;" d="M423.994,265.315c10.085,46.032-18.09,75.725-57.112,74.349
			c-18.714-0.66-41.048-21.229-59.426-25.815c-23.975-5.982-44.754,1.773-67.689,2.907c-57.045,2.82-56.297-20.46-94.74-50.476
			c-27.027-21.102-70.566-18.789-85.029-55.743c-17.676-45.164,32.987-66.984,71.501-60.297c44.236,7.68,56.49-47.4,124.065-41.299
			C322.038,114.943,409.786,195.982,423.994,265.315z"/>
	</g>
</g>
<g id="Shadow_1_">
	<ellipse id="_x3C_Path_x3E__137_" style="fill:#F5F5F5;" cx="250" cy="416.238" rx="193.889" ry="11.323"/>
</g>
<g id="Login">
	<g>
		<g>
			<path style="fill:#407BFF;" d="M260.414,365.496H132.84c-4.215,0-7.808-3.417-8.025-7.632l-11.418-221.551
				c-0.217-4.215,3.024-7.632,7.239-7.632h127.574c4.215,0,7.808,3.417,8.025,7.632l11.418,221.551
				C267.87,362.079,264.629,365.496,260.414,365.496z"/>
			<path style="opacity:0.8;fill:#FFFFFF;" d="M260.414,365.496H132.84c-4.215,0-7.808-3.417-8.025-7.632l-11.418-221.551
				c-0.217-4.215,3.024-7.632,7.239-7.632h127.574c4.215,0,7.808,3.417,8.025,7.632l11.418,221.551
				C267.87,362.079,264.629,365.496,260.414,365.496z"/>
		</g>
		<rect x="221.507" y="121.455" style="fill:#407BFF;" width="14.111" height="1"/>
		<rect x="211.452" y="121.455" style="fill:#407BFF;" width="5.167" height="1"/>
		<path style="fill:#407BFF;" d="M265.899,351.444H143.888c-4.031,0-7.468-3.268-7.675-7.299l-10.92-211.891
			c-0.208-4.031,2.892-7.299,6.923-7.299h122.012c4.031,0,7.468,3.268,7.675,7.299l10.92,211.891
			C273.03,348.176,269.93,351.444,265.899,351.444z"/>
		<path style="fill:#FFFFFF;" d="M265.899,346.569H143.888c-1.422,0-2.733-1.25-2.807-2.675l-10.92-211.891
			c-0.039-0.773,0.273-1.273,0.542-1.556c0.267-0.282,0.747-0.617,1.514-0.617h122.011c1.422,0,2.734,1.25,2.808,2.675
			l10.92,211.891c0.039,0.774-0.273,1.274-0.542,1.557C267.145,346.234,266.665,346.569,265.899,346.569z M132.215,130.08
			c-0.678,0-1.099,0.293-1.332,0.539c-0.235,0.248-0.508,0.687-0.473,1.371l10.92,211.891c0.067,1.298,1.262,2.438,2.557,2.438
			h122.011c0.678,0,1.098-0.293,1.332-0.539c0.235-0.248,0.509-0.687,0.474-1.372l-10.92-211.891
			c-0.067-1.299-1.262-2.438-2.558-2.438H132.215z"/>
		
			<ellipse transform="matrix(0.6979 -0.7162 0.7162 0.6979 -70.117 194.985)" style="opacity:0.3;fill:#FFFFFF;" cx="196.089" cy="180.614" rx="35.997" ry="37.9"/>
		<path style="fill:#FFFFFF;" d="M225.973,180.614c0.266,5.161-0.793,10.006-2.878,14.234c-4.561,9.314-14.105,15.649-25.466,15.649
			s-21.558-6.335-27.079-15.649c-2.52-4.228-4.079-9.073-4.345-14.234c-0.851-16.507,11.837-29.884,28.343-29.884
			S225.122,164.107,225.973,180.614z"/>
		<path style="fill:#407BFF;" d="M223.095,194.848c-4.561,9.314-14.105,15.649-25.466,15.649s-21.558-6.335-27.079-15.649
			c7.264-5.026,16.141-7.96,25.862-7.96S215.313,189.823,223.095,194.848z"/>
		
			<ellipse transform="matrix(0.6979 -0.7162 0.7162 0.6979 -62.9542 191.5219)" style="fill:#407BFF;" cx="195.563" cy="170.39" rx="12.973" ry="13.659"/>
		<g>
			<path style="fill:#FFFFFF;" d="M248.413,269.021h-95.534c-1.706,0-3.16-1.383-3.248-3.089l-0.724-14.038
				c-0.088-1.706,1.224-3.089,2.93-3.089h95.534c1.706,0,3.16,1.383,3.248,3.089l0.724,14.038
				C251.43,267.638,250.119,269.021,248.413,269.021z"/>
			<path style="opacity:0.3;" d="M219.157,241.096h-39.899c-1.706,0-3.16-1.383-3.248-3.089l-0.154-2.98
				c-0.088-1.706,1.224-3.089,2.93-3.089h39.899c1.706,0,3.16,1.383,3.248,3.089l0.154,2.98
				C222.174,239.713,220.863,241.096,219.157,241.096z"/>
			<path style="opacity:0.3;" d="M233.994,336.307h-59.761c-2.905,0-5.382-2.355-5.531-5.26l-0.355-6.892
				c-0.15-2.905,2.084-5.26,4.989-5.26h59.761c2.905,0,5.382,2.355,5.531,5.26l0.355,6.892
				C239.133,333.952,236.899,336.307,233.994,336.307z"/>
			<path style="fill:#FFFFFF;" d="M250.157,302.857h-95.534c-1.706,0-3.16-1.383-3.248-3.089l-0.723-14.038
				c-0.088-1.706,1.224-3.089,2.93-3.089h95.534c1.706,0,3.16,1.383,3.248,3.089l0.724,14.038
				C253.174,301.474,251.863,302.857,250.157,302.857z"/>
			<path style="fill:#263238;" d="M165.028,258.913c0.097,1.889-1.355,3.419-3.243,3.419s-3.498-1.531-3.596-3.419
				c-0.097-1.888,1.355-3.419,3.243-3.419S164.93,257.025,165.028,258.913z"/>
			<path style="fill:#263238;" d="M175.535,258.913c0.097,1.889-1.355,3.419-3.243,3.419c-1.888,0-3.498-1.531-3.596-3.419
				c-0.097-1.888,1.355-3.419,3.243-3.419S175.438,257.025,175.535,258.913z"/>
			<path style="fill:#263238;" d="M186.042,258.913c0.097,1.889-1.355,3.419-3.243,3.419c-1.888,0-3.498-1.531-3.596-3.419
				c-0.097-1.888,1.355-3.419,3.243-3.419S185.945,257.025,186.042,258.913z"/>
			<path style="fill:#263238;" d="M196.549,258.913c0.097,1.889-1.355,3.419-3.243,3.419s-3.498-1.531-3.596-3.419
				c-0.097-1.888,1.355-3.419,3.243-3.419C194.842,255.494,196.452,257.025,196.549,258.913z"/>
			<path style="fill:#263238;" d="M166.771,292.749c0.097,1.889-1.355,3.419-3.243,3.419c-1.888,0-3.498-1.531-3.596-3.419
				c-0.097-1.888,1.355-3.419,3.243-3.419S166.674,290.86,166.771,292.749z"/>
			<path style="fill:#263238;" d="M177.279,292.749c0.097,1.889-1.355,3.419-3.243,3.419c-1.889,0-3.498-1.531-3.596-3.419
				c-0.097-1.888,1.355-3.419,3.243-3.419S177.181,290.86,177.279,292.749z"/>
			<path style="fill:#263238;" d="M187.786,292.749c0.097,1.889-1.355,3.419-3.243,3.419c-1.888,0-3.498-1.531-3.596-3.419
				c-0.097-1.888,1.355-3.419,3.243-3.419C186.079,289.329,187.689,290.86,187.786,292.749z"/>
			<path style="fill:#263238;" d="M198.293,292.749c0.097,1.889-1.355,3.419-3.243,3.419c-1.888,0-3.498-1.531-3.596-3.419
				c-0.097-1.888,1.355-3.419,3.243-3.419C196.586,289.329,198.196,290.86,198.293,292.749z"/>
			<path style="fill:#263238;" d="M208.8,292.749c0.097,1.889-1.355,3.419-3.243,3.419s-3.498-1.531-3.596-3.419
				c-0.097-1.888,1.355-3.419,3.243-3.419S208.703,290.86,208.8,292.749z"/>
			<path style="fill:#263238;" d="M219.308,292.749c0.097,1.889-1.355,3.419-3.243,3.419c-1.889,0-3.498-1.531-3.596-3.419
				c-0.097-1.888,1.355-3.419,3.243-3.419S219.21,290.86,219.308,292.749z"/>
		</g>
	</g>
</g>
<g id="Character_1_">
	<g>
		<g>
			<path style="fill:#803E3C;" d="M333.031,176.624c0.251,0.371,0.378,0.575,0.543,0.842l0.447,0.748
				c0.29,0.495,0.544,0.989,0.8,1.483c0.5,0.989,0.973,1.978,1.396,2.979c0.857,1.999,1.56,4.042,2.167,6.098
				c1.233,4.109,1.985,8.321,2.371,12.535l0.077,0.789c0.014,0.113,0.024,0.292,0.032,0.477l0.022,0.538
				c0.013,0.71-0.022,1.414-0.121,2.079c-0.188,1.341-0.549,2.579-0.992,3.724c-0.899,2.28-2.134,4.217-3.459,5.98
				c-2.712,3.511-5.791,6.321-9.309,8.812l-2.754-3.227c2.471-2.858,4.866-6.026,6.64-9.189c0.905-1.577,1.597-3.204,2.028-4.72
				c0.202-0.758,0.311-1.487,0.328-2.144c0.023-0.332-0.001-0.639-0.033-0.93l-0.03-0.214c-0.007-0.065-0.015-0.137-0.041-0.272
				l-0.126-0.704c-0.654-3.754-1.547-7.441-2.718-11.004c-0.575-1.786-1.286-3.512-2.007-5.207
				c-0.357-0.851-0.751-1.676-1.155-2.482l-0.621-1.175l-0.308-0.557l-0.254-0.436L333.031,176.624z"/>
			<path style="fill:#7F3E3B;" d="M323.696,223.773l3.621,7.645l2.871-6.465c0,0-2.545-5.6-5.989-5.088L323.696,223.773z"/>
			<polygon style="fill:#7F3E3B;" points="329.912,231.798 332.787,227.083 330.189,224.954 327.317,231.419 			"/>
			<path style="fill:#407BFF;" d="M313.634,408.217c0.774,0,1.62-0.16,2.212-0.3c0.077-0.018,0.136-0.081,0.15-0.158
				c0.014-0.078-0.02-0.157-0.086-0.2c-0.287-0.189-2.831-1.831-3.805-1.39c-0.154,0.07-0.348,0.223-0.395,0.558
				c-0.063,0.444,0.048,0.799,0.329,1.055C312.395,408.107,312.99,408.217,313.634,408.217z M315.285,407.634
				c-1.458,0.292-2.555,0.241-2.979-0.146c-0.181-0.164-0.247-0.396-0.203-0.706c0.023-0.167,0.101-0.223,0.165-0.251
				C312.782,406.294,314.248,407.007,315.285,407.634z"/>
			<path style="fill:#407BFF;" d="M315.8,407.922c0.034,0,0.069-0.009,0.1-0.027c0.061-0.036,0.099-0.101,0.099-0.171
				c0-0.103-0.011-2.514-0.922-3.32c-0.242-0.215-0.525-0.304-0.84-0.265c-0.497,0.06-0.632,0.373-0.668,0.553
				c-0.189,0.944,1.334,2.751,2.133,3.204C315.733,407.914,315.767,407.922,315.8,407.922z M314.375,404.527
				c0.163,0,0.307,0.057,0.439,0.174c0.543,0.482,0.73,1.835,0.776,2.638c-0.796-0.636-1.746-1.993-1.631-2.569
				c0.019-0.094,0.073-0.207,0.326-0.237C314.316,404.529,314.346,404.527,314.375,404.527z"/>
			<path style="fill:#407BFF;" d="M304.19,404.137c0.047-0.051,0.065-0.123,0.044-0.191c-0.024-0.081-0.096-0.137-0.18-0.142
				c-0.415-0.02-4.01-0.17-4.819,0.706c-0.018,0.019-0.034,0.039-0.049,0.059c-0.135,0.182-0.164,0.396-0.085,0.62
				c0.133,0.374,0.379,0.619,0.729,0.728c1.164,0.361,3.213-0.944,4.331-1.754C304.172,404.155,304.181,404.146,304.19,404.137z
				 M299.534,404.771c0.446-0.483,2.424-0.614,3.91-0.589c-1.558,1.056-2.844,1.559-3.496,1.357
				c-0.228-0.071-0.383-0.229-0.473-0.482c-0.035-0.098-0.026-0.176,0.029-0.25C299.513,404.794,299.523,404.782,299.534,404.771z"
				/>
			<path style="fill:#407BFF;" d="M304.19,404.137c0.01-0.01,0.018-0.022,0.026-0.035c0.035-0.061,0.036-0.135,0.002-0.197
				c-0.047-0.084-1.165-2.051-2.488-2.408c-0.405-0.109-0.789-0.06-1.142,0.148c-0.476,0.279-0.503,0.601-0.443,0.82
				c0.256,0.927,2.806,1.743,3.901,1.736C304.101,404.2,304.153,404.176,304.19,404.137z M300.599,402.132
				c0.041-0.044,0.101-0.093,0.19-0.145c0.261-0.153,0.534-0.188,0.837-0.107c0.869,0.234,1.687,1.346,2.049,1.902
				c-1.182-0.135-2.995-0.866-3.148-1.422C300.518,402.326,300.496,402.244,300.599,402.132z"/>
			<path style="fill:#7F3E3B;" d="M315.199,147.33c-0.974,4.97-3.163,15.813,0.314,19.13c0,0-1.359,5.042-10.594,5.042
				c-10.155,0-4.853-5.041-4.853-5.041c5.543-1.324,5.4-5.436,4.434-9.298L315.199,147.33z"/>
			<path style="fill:#263238;" d="M298.275,135.608c0.06,0,0.12-0.014,0.177-0.042c0.196-0.098,0.275-0.336,0.177-0.533
				c-0.983-1.962-2.801-2.19-2.878-2.199c-0.217-0.026-0.414,0.132-0.439,0.35c-0.025,0.217,0.131,0.413,0.347,0.439l0,0
				c0.06,0.007,1.475,0.2,2.26,1.766C297.99,135.528,298.13,135.608,298.275,135.608z"/>
			<path style="fill:#630F0F;" d="M295.247,139.952c0,0-1.495,2.746-2.92,3.984c0.783,0.936,2.335,0.744,2.335,0.744
				L295.247,139.952z"/>
			<path style="fill:#263238;" d="M295.99,138.874c-0.083,0.671-0.505,1.17-0.944,1.116c-0.438-0.054-0.726-0.642-0.643-1.312
				c0.083-0.671,0.505-1.17,0.944-1.116C295.784,137.616,296.073,138.203,295.99,138.874z"/>
			<path style="fill:#263238;" d="M295.535,137.623l-1.553-0.663C293.982,136.959,294.653,138.319,295.535,137.623z"/>
			<polygon style="fill:#7F3E3B;" points="313.016,402.237 304.859,404.142 299.902,385.38 308.059,383.475 			"/>
			<polygon style="fill:#7F3E3B;" points="325.541,407.724 317.165,407.724 317.822,388.327 326.198,388.327 			"/>
			<path style="fill:#263238;" d="M316.501,406.754h9.41c0.342,0,0.62,0.238,0.668,0.572l1.072,7.445
				c0.111,0.772-0.553,1.503-1.343,1.49c-3.281-0.056-4.862-0.249-9-0.249c-2.546,0-6.266,0.264-9.781,0.264
				c-3.439,0-3.703-3.477-2.239-3.791c6.564-1.412,7.601-3.359,9.813-5.216C315.5,406.935,316,406.754,316.501,406.754z"/>
			<path style="fill:#263238;" d="M304.136,402.892l8.549-3.933c0.311-0.143,0.663-0.043,0.846,0.24l4.086,6.316
				c0.424,0.655,0.126,1.597-0.598,1.914c-3.004,1.32-4.521,1.806-8.281,3.535c-2.313,1.064-6.987,3.505-10.181,4.974
				c-3.124,1.437-4.817-1.611-3.619-2.509c5.374-4.026,6.907-6.874,8.14-9.486C303.302,403.474,303.681,403.102,304.136,402.892z"/>
			<g>
				<polygon style="opacity:0.2;" points="299.905,385.384 302.559,395.436 310.619,393.15 308.066,383.478 				"/>
				<polygon style="opacity:0.2;" points="326.2,388.332 317.82,388.332 317.486,398.331 325.865,398.331 				"/>
			</g>
			<path style="fill:#263238;" d="M329.96,168.363c3.48,0.763,7.196,13.281,7.196,13.281l-9.839,10.461c0,0-8.163-11.757-6.5-16.08
				C322.549,171.522,325.847,167.462,329.96,168.363z"/>
			<path style="opacity:0.4;" d="M324.444,176.33c-1.76-1.61-2.95-1.13-3.76,0.15c-0.8,3.72,3.94,11.51,5.85,14.46
				C327.414,187.42,328.424,179.99,324.444,176.33z"/>
			<path style="fill:#263238;" d="M285.907,168.606c0,0-3.99,1.405,4.003,50.555c13.499,0,27.451,0,34.019,0
				c-0.571-13.846-0.587-22.383,6.03-50.798c0,0-7.128-1.551-14.446-1.903c-5.725-0.276-10.415-0.459-15.448,0.001
				C293.431,167.066,285.907,168.606,285.907,168.606z"/>
			<path style="opacity:0.4;" d="M285.604,187.47c0.22,2.39,0.51,5.08,0.89,8.12c2.786-2.509,5.063-9.645,4.23-13.809
				C288.774,183.23,286.974,185.47,285.604,187.47z"/>
			<path style="fill:#803E3C;" d="M289.235,180.019c-1.851,4.675-3.89,9.118-6.183,13.555c-2.29,4.431-4.735,8.785-7.985,12.995
				l-0.639,0.787l-0.32,0.393c-0.109,0.132-0.196,0.249-0.373,0.43c-0.618,0.683-1.289,1.267-1.975,1.757
				c-1.377,0.982-2.801,1.607-4.181,2.088c-2.764,0.93-5.436,1.259-8.04,1.416c-5.227,0.212-10.172-0.273-15.159-1.346l0.555-4.206
				c2.298,0.012,4.709-0.039,7.033-0.186c2.336-0.122,4.648-0.372,6.866-0.767c2.213-0.371,4.353-0.935,6.139-1.712
				c0.881-0.395,1.647-0.868,2.21-1.347c0.284-0.238,0.506-0.483,0.684-0.716c0.037-0.034,0.127-0.166,0.203-0.273l0.234-0.33
				l0.468-0.657c2.464-3.645,4.627-7.88,6.693-12.113c2.029-4.253,3.987-8.662,5.824-12.965L289.235,180.019z"/>
			<path style="fill:#263238;" d="M285.907,168.606c-4.163,1.015-9.286,12.445-9.286,12.445l8.642,12.695
				c0,0,11.505-14.483,10.137-18.909C293.974,170.228,290.958,167.374,285.907,168.606z"/>
			<path style="fill:#7F3E3B;" d="M247.331,208.512l-7.208-3.328l-0.725,7.165c0,0,6.024,1.773,8.995-0.044L247.331,208.512z"/>
			<polygon style="fill:#7F3E3B;" points="235.806,204.46 235.118,209.917 239.399,212.35 240.123,205.184 			"/>
			<path style="fill:#7F3E3B;" d="M318.819,139.361c-1.525,8.172-1.995,11.664-6.677,15.376c-7.043,5.584-16.747,1.924-17.695-6.539
				c-0.853-7.618,1.783-19.702,10.249-21.982C313.037,123.97,320.343,131.189,318.819,139.361z"/>
			<path style="fill:#263238;" d="M300.868,141.083c-0.467,4.167-0.647,14.993,8.507,15.333c11.219,0.417,14.577-9.167,13.577-13
				c5.833-4.75,6.677-12.917,0.118-19.167c-6.559-6.25-21-2.756-25.035,3.333C293.035,135.13,300.868,141.083,300.868,141.083z"/>
			<path style="fill:#407BFF;" d="M312.101,126.678c-0.542-4.395-0.121-7.428,3.99-7.428c4.111,0,9.736,1.493,11.798,5.705
				c2.063,4.212,2.229,10.795-3.521,10.128C318.618,134.417,312.75,131.939,312.101,126.678z"/>
			<path style="fill:#263238;" d="M318.477,125.622c-0.98-5.243,3.691-19.996,15.086-20.955c5.278-0.445,7.722,5.236,4.958,6.172
				c4.986-0.061,8.2,6.549,3.536,7.544c3.687,2.355,2.769,7.201-2.481,9.576C335.706,129.709,319.833,132.877,318.477,125.622z"/>
			<path style="fill:#263238;" d="M330.65,131.252c-3.666,0-7.5-0.539-9.875-2.129c-1.442-0.966-2.233-2.246-2.351-3.806
				c-0.01-0.138,0.093-0.258,0.23-0.268c0.146-0.011,0.258,0.093,0.269,0.23c0.105,1.399,0.822,2.552,2.13,3.428
				c4.525,3.03,14.983,2.049,18.261,0.979c2.819-0.92,4.728-2.703,5.107-4.769c0.278-1.516-0.317-2.952-1.674-4.045
				c-0.107-0.087-0.125-0.244-0.038-0.352c0.086-0.108,0.244-0.124,0.352-0.038c1.485,1.196,2.16,2.845,1.853,4.525
				c-0.412,2.25-2.447,4.177-5.443,5.155C337.753,130.722,334.284,131.252,330.65,131.252z"/>
			<path style="fill:#7F3E3B;" d="M298.316,139.979c-1.004,1.391-1.293,3.12-1.071,4.515c0.333,2.097,2.378,2.237,3.858,0.892
				c1.332-1.21,2.765-3.76,1.674-5.498C301.702,138.174,299.465,138.389,298.316,139.979z"/>
			<path style="fill:#407BFF;" d="M298.894,219.161c0,0,4.861,57.491,9.905,89.892c4.074,26.17,7.286,87.342,7.286,87.342h11.422
				c0,0,4.063-59.344,1.995-85.228c-5.233-65.498,6.436-70.833-5.573-92.006H298.894z"/>
			<path style="opacity:0.4;" d="M313.273,240.89c-4.61,4.71-8.12,10.34-10.79,16.28c1.33,12.92,2.91,27.26,4.59,39.82
				C312.273,283.86,316.724,263.66,313.273,240.89z"/>
			<path style="fill:#407BFF;" d="M290.899,218.798c0,0-10.545,62.789-12.212,91.091c4.142,26.171,21.083,81.486,21.083,81.486
				l10.39-3.764c0,0-5.748-60.319-12.033-76.833c14.07-47.372,24.41-59.345,21.402-91.617
				C312.353,219.161,290.899,218.798,290.899,218.798z"/>
			<polygon style="fill:#263238;" points="298.376,394.139 312.416,390.327 311.621,384.73 296.588,388.795 			"/>
			<polygon style="fill:#263238;" points="314.522,396.621 329.071,396.621 329.835,391.517 314.439,390.996 			"/>
			<g>
				<path style="fill:#407BFF;" d="M324.439,217.164l1.534,3.045c0.119,0.236-0.161,0.477-0.554,0.477h-35.677
					c-0.307,0-0.561-0.15-0.58-0.343l-0.307-3.045c-0.021-0.211,0.245-0.39,0.58-0.39h34.449
					C324.138,216.909,324.362,217.012,324.439,217.164z"/>
				<path style="opacity:0.5;" d="M324.439,217.164l1.534,3.045c0.119,0.236-0.161,0.477-0.554,0.477h-35.677
					c-0.307,0-0.561-0.15-0.58-0.343l-0.307-3.045c-0.021-0.211,0.245-0.39,0.58-0.39h34.449
					C324.138,216.909,324.362,217.012,324.439,217.164z"/>
			</g>
			<path style="fill:#407BFF;" d="M319.812,221.016h0.923c0.184,0,0.324-0.095,0.311-0.211l-0.433-3.956
				c-0.013-0.116-0.173-0.21-0.357-0.21h-0.923c-0.184,0-0.324,0.095-0.311,0.21l0.433,3.956
				C319.467,220.922,319.628,221.016,319.812,221.016z"/>
			<g>
				<path style="fill:#407BFF;" d="M307.427,191.875c-0.225,0-0.424-0.151-0.482-0.369c-3.263-12.054-10.044-21.968-13.278-23.497
					c-0.362-0.171-0.662-0.22-0.843-0.139c-0.254,0.114-0.548,0.001-0.662-0.251c-0.113-0.252-0.001-0.548,0.25-0.661
					c0.467-0.211,1.032-0.161,1.682,0.146c3.452,1.632,10.292,11.433,13.714,23.768c2.452-0.031,6.235-0.337,7.147-0.414
					c1.143-1.358,9.529-11.839,6.391-23.305c-0.073-0.266,0.084-0.541,0.351-0.614c0.264-0.073,0.541,0.083,0.614,0.35
					c3.492,12.762-6.635,24.268-6.737,24.383c-0.085,0.095-0.203,0.154-0.329,0.165
					C315.195,191.442,310.208,191.875,307.427,191.875z"/>
				<g>
					<g>
						<path style="fill:#407BFF;" d="M323.992,198.944c-5.451-10.218-7.68-10.932-8.655-14.217c0,0,0.878-2.48,3.108-4.991
							c-0.669-0.186-2.084-0.469-2.972-0.64c0.101-0.447,0.204-0.889,0.305-1.313c-0.737-0.205-2.266,0.006-3.048,0.137
							l-0.035-1.008c0,0-2.764-0.555-3.875-0.246c0.111,0.465,0.223,0.949,0.335,1.44c-0.973,0.188-2.525,0.498-3.258,0.702
							c2.123,2.391,2.889,4.944,3.054,5.574c-2.936,5.045-14.359,37.51,4.216,39.951
							C331.753,226.775,329.442,209.162,323.992,198.944z"/>
						<path style="opacity:0.4;fill:#FFFFFF;" d="M323.992,198.944c-5.451-10.218-7.68-10.932-8.655-14.217
							c0,0,0.878-2.48,3.108-4.991c-0.669-0.186-2.084-0.469-2.972-0.64c0.101-0.447,0.204-0.889,0.305-1.313
							c-0.737-0.205-2.266,0.006-3.048,0.137l-0.035-1.008c0,0-2.764-0.555-3.875-0.246c0.111,0.465,0.223,0.949,0.335,1.44
							c-0.973,0.188-2.525,0.498-3.258,0.702c2.123,2.391,2.889,4.944,3.054,5.574c-2.936,5.045-14.359,37.51,4.216,39.951
							C331.753,226.775,329.442,209.162,323.992,198.944z"/>
					</g>
					<path style="fill:#407BFF;" d="M308.257,183.415c-0.138,0.248-0.125,1.188-0.146,1.563c-0.021,0.375,0.979,0.625,2.104,0.729
						s5.771,0.292,5.625-0.229c-0.146-0.521,0.229-1.229,0.25-1.667c0.021-0.438-1.854-0.458-3.417-0.396
						S308.57,182.852,308.257,183.415z"/>
				</g>
			</g>
			<path style="fill:#407BFF;" d="M297.448,221.016h0.923c0.184,0,0.324-0.095,0.311-0.211l-0.433-3.956
				c-0.013-0.116-0.173-0.21-0.357-0.21h-0.923c-0.184,0-0.324,0.095-0.311,0.21l0.433,3.956
				C297.104,220.922,297.264,221.016,297.448,221.016z"/>
		</g>
	</g>
</g>
</svg>
